<?xml version="1.0" standalone="no"?>
<!DOCTYPE svg PUBLIC "-//W3C//DTD SVG 20010904//EN" "http://www.w3.org/TR/2001/REC-SVG-20010904/DTD/svg10.dtd">
<svg class="arrow-right-circle" xmlns="http://www.w3.org/2000/svg" width="36" height="36" viewBox="0 0 36 36">
    <path id="Path_14" data-name="Path 14"
        d="M18,33.75A15.75,15.75,0,1,0,2.25,18,15.75,15.75,0,0,0,18,33.75ZM18,36A18,18,0,1,0,0,18,18,18,0,0,0,18,36Z"
        fill="#00edff" fill-rule="evenodd"/>
    <path id="Path_15" data-name="Path 15"
        d="M17.2,25.546a1.125,1.125,0,0,1,0-1.593L23.159,18,17.2,12.046A1.126,1.126,0,0,1,18.8,10.453l6.75,6.75a1.125,1.125,0,0,1,0,1.593l-6.75,6.75a1.125,1.125,0,0,1-1.593,0Z"
        fill="#00edff" fill-rule="evenodd"/>
    <path id="Path_16" data-name="Path 16"
        d="M10.125,18a1.125,1.125,0,0,1,1.125-1.125H22.5a1.125,1.125,0,0,1,0,2.25H11.25A1.125,1.125,0,0,1,10.125,18Z"
        fill="#00edff" fill-rule="evenodd"/>
</svg>