<?xml version="1.0" standalone="no"?>
<!DOCTYPE svg PUBLIC "-//W3C//DTD SVG 20010904//EN" "http://www.w3.org/TR/2001/REC-SVG-20010904/DTD/svg10.dtd">
<svg class="complete-svg" xmlns="http://www.w3.org/2000/svg" width="20.25" height="20.25" viewBox="0 0 31.502 29.251">
    <g id="check2-circle" transform="translate(-3.375 -3.373)">
        <path id="Path_12" data-name="Path 12"
            d="M34.546,5.954a1.125,1.125,0,0,1,0,1.593L18.8,23.3a1.125,1.125,0,0,1-1.593,0l-6.75-6.75a1.126,1.126,0,0,1,1.593-1.593L18,20.909,32.954,5.953a1.125,1.125,0,0,1,1.593,0Z"
            fill="#fff" fill-rule="evenodd" />
        <path id="Path_13" data-name="Path 13"
            d="M18,5.625A12.375,12.375,0,1,0,30.375,18a1.125,1.125,0,0,1,2.25,0A14.625,14.625,0,1,1,25.312,5.332a1.125,1.125,0,1,1-1.125,1.946A12.312,12.312,0,0,0,18,5.625Z"
            fill="#fff" fill-rule="evenodd" />
    </g>
</svg>