<?xml version="1.0" standalone="no"?>
<!DOCTYPE svg PUBLIC "-//W3C//DTD SVG 20010904//EN" "http://www.w3.org/TR/2001/REC-SVG-20010904/DTD/svg10.dtd">
<svg class="delete-svg" xmlns="http://www.w3.org/2000/svg" width="20.25" height="20.25" viewBox="0 0 29.25 33.75">
    <g id="trash" transform="translate(-3.375)">
        <path id="Path_3" data-name="Path 3"
            d="M12.375,12.375A1.125,1.125,0,0,1,13.5,13.5V27a1.125,1.125,0,0,1-2.25,0V13.5A1.125,1.125,0,0,1,12.375,12.375Zm5.625,0A1.125,1.125,0,0,1,19.125,13.5V27a1.125,1.125,0,0,1-2.25,0V13.5A1.125,1.125,0,0,1,18,12.375ZM24.75,13.5a1.125,1.125,0,0,0-2.25,0V27a1.125,1.125,0,0,0,2.25,0Z"
            fill="#fff" />
        <path id="Path_4" data-name="Path 4"
            d="M32.625,6.75A2.25,2.25,0,0,1,30.375,9H29.25V29.25a4.5,4.5,0,0,1-4.5,4.5H11.25a4.5,4.5,0,0,1-4.5-4.5V9H5.625a2.25,2.25,0,0,1-2.25-2.25V4.5a2.25,2.25,0,0,1,2.25-2.25H13.5A2.25,2.25,0,0,1,15.75,0h4.5A2.25,2.25,0,0,1,22.5,2.25h7.875a2.25,2.25,0,0,1,2.25,2.25ZM9.266,9,9,9.133V29.25a2.25,2.25,0,0,0,2.25,2.25h13.5A2.25,2.25,0,0,0,27,29.25V9.133L26.735,9ZM5.625,6.75V4.5h24.75V6.75Z"
            fill="#fff" fill-rule="evenodd" />
    </g>
</svg>