<?xml version="1.0" standalone="no"?>
<!DOCTYPE svg PUBLIC "-//W3C//DTD SVG 20010904//EN" "http://www.w3.org/TR/2001/REC-SVG-20010904/DTD/svg10.dtd">
<svg class="time-left" xmlns="http://www.w3.org/2000/svg" width="36.004" height="36.004" viewBox="0 0 36.004 36.004">
    <g id="clock-history" transform="translate(0.007)">
        <path id="Path_9" data-name="Path 9"
            d="M19.159,2.293Q18.58,2.25,18,2.25V0c.44,0,.882.016,1.323.049l-.164,2.243ZM23.668,3.3a15.757,15.757,0,0,0-2.216-.673l.493-2.2a17.611,17.611,0,0,1,2.533.77l-.81,2.1Zm3.083,1.6q-.483-.322-.988-.608l1.109-1.958a18.056,18.056,0,0,1,2.2,1.472L27.691,5.583q-.458-.357-.941-.679Zm4.127,4.027a15.728,15.728,0,0,0-1.469-1.791l1.629-1.552a18.718,18.718,0,0,1,1.681,2.047l-1.84,1.3Zm1.674,3.042q-.221-.535-.481-1.053L34.08,9.906a17.946,17.946,0,0,1,1.012,2.448l-2.137.7q-.181-.551-.4-1.087Zm1.193,5.641a15.73,15.73,0,0,0-.225-2.306l2.216-.383A18.163,18.163,0,0,1,36,17.555l-2.25.056Zm-.295,3.461c.074-.383.135-.763.182-1.147l2.234.277a17.9,17.9,0,0,1-.518,2.6l-2.169-.6q.155-.557.27-1.127Zm-2.142,5.353A15.89,15.89,0,0,0,32.4,24.383l2.057.911a18.172,18.172,0,0,1-1.249,2.336l-1.9-1.2Zm-2.169,2.711c.274-.274.538-.558.787-.851l1.706,1.469q-.433.5-.9.972l-1.591-1.591Z"
            fill="#00edff" fill-rule="evenodd" />
        <path id="Path_10" data-name="Path 10"
            d="M18,2.25A15.75,15.75,0,1,0,29.138,29.137l1.591,1.591A18,18,0,1,1,18,0Z" fill="#00edff"
            fill-rule="evenodd" />
        <path id="Path_11" data-name="Path 11"
            d="M16.875,6.75A1.125,1.125,0,0,1,18,7.875V19.6l7.308,4.176a1.125,1.125,0,0,1-1.116,1.953l-7.875-4.5a1.125,1.125,0,0,1-.567-.977V7.875A1.125,1.125,0,0,1,16.875,6.75Z"
            fill="#00edff" fill-rule="evenodd" />
    </g>
</svg>