<?xml version="1.0" standalone="no"?>
<!DOCTYPE svg PUBLIC "-//W3C//DTD SVG 20010904//EN"
 "http://www.w3.org/TR/2001/REC-SVG-20010904/DTD/svg10.dtd">
<svg version="1.0" xmlns="http://www.w3.org/2000/svg"
 width="256.000000pt" height="256.000000pt" viewBox="0 0 256.000000 256.000000"
 preserveAspectRatio="xMidYMid meet">
<metadata>
Created by potrace 1.14, written by Peter Selinger 2001-2017
</metadata>
<g transform="translate(0.000000,256.000000) scale(0.100000,-0.100000)"
fill="#000000" stroke="none">
<path d="M1456 2493 c-3 -4 -82 -8 -174 -9 -244 -4 -285 -8 -327 -32 -20 -12
-47 -22 -61 -22 -34 0 -90 -25 -101 -45 -6 -9 -12 -16 -14 -14 -11 6 -54 -16
-74 -37 -12 -13 -26 -24 -30 -24 -8 0 -29 -22 -90 -95 -22 -27 -57 -65 -77
-86 -21 -21 -38 -45 -38 -54 0 -9 -9 -34 -20 -56 -14 -26 -20 -57 -20 -92 1
-29 -7 -90 -18 -137 -17 -71 -19 -111 -16 -240 5 -188 7 -210 18 -210 5 0 3
-7 -4 -15 -9 -11 -16 -12 -26 -4 -23 19 -83 1 -114 -33 -16 -17 -27 -35 -24
-40 3 -4 1 -8 -3 -8 -10 0 -15 -37 -15 -110 0 -108 34 -234 78 -290 47 -60
115 -119 157 -135 47 -18 45 -13 63 -113 21 -113 127 -257 262 -355 23 -17 42
-34 42 -39 0 -4 5 -8 11 -8 11 0 125 -75 148 -98 25 -24 85 -58 126 -72 76
-25 325 -16 325 12 0 4 7 8 15 8 9 0 28 11 43 25 15 14 32 25 39 25 7 0 13 4
13 8 0 5 44 38 98 75 53 36 109 77 124 91 15 15 32 26 38 26 5 0 10 4 10 9 0
5 22 32 50 61 52 55 110 146 110 174 0 9 4 16 8 16 4 0 8 8 8 18 1 16 11 70
19 102 2 8 4 19 4 23 1 5 5 6 10 2 5 -3 12 -1 16 5 4 6 10 8 14 6 13 -9 92 51
133 100 44 54 68 95 68 119 0 8 4 15 8 15 5 0 9 6 9 13 1 6 5 30 9 52 9 43 11
200 3 225 -11 34 -44 79 -63 85 -31 11 -87 12 -92 3 -3 -4 -12 -8 -20 -8 -11
0 -13 6 -8 23 4 12 8 31 9 42 1 11 3 20 4 20 1 0 5 29 8 65 10 108 7 253 -8
311 -7 30 -14 56 -14 59 -14 55 -15 84 -7 109 6 16 7 32 4 36 -8 8 -9 13 -11
59 0 19 -8 41 -16 50 -8 8 -15 20 -15 26 0 23 -30 69 -50 75 -11 3 -23 17 -26
31 -7 26 -57 74 -78 74 -7 0 -27 11 -46 25 -19 14 -44 25 -56 25 -12 0 -25 7
-28 15 -3 9 -23 23 -43 32 -21 8 -50 24 -64 34 -15 10 -36 20 -47 22 -11 2
-26 8 -34 14 -7 6 -29 13 -49 16 -19 2 -45 9 -56 15 -11 6 -23 8 -27 5z"/>
</g>
</svg>
